# xmcd
#
# Track frame offsets:
#	150
#	12064
#	21996
#	33846
#	45177
#	59425
#	71561
#	89212
#	100803
#	111889
#	128762
#	140392
#	153008
#	162940
#	174212
#	195417
#	210529
#	225204
#	242148
#	255720
#	274276
#
# Disc length: 3839 seconds
#
# Revision: 1
# Processed by: cddbd v1.5.2PL0 Copyright (c) Steve Scherf et al.
# Submitted via: audiograbber 1.83.01
#
DISCID=0e0efd15
DTITLE=Glen Campbell - Classic Campbell Disc 2
DYEAR=1995
DGENRE=Country
TTITLE0=The Twelfth Of never
TTITLE1=Oh Boy!
TTITLE2=Less of Me
TTITLE3=You've Still Got A Place In My Heart (B-Side of 'By The Time I Get To P
TTITLE3=hoenix' 1967)
TTITLE4=Gentle On My Mind
TTITLE5=Homeward Bound
TTITLE6=Last Thing On My Mind
TTITLE7=Hey Little One
TTITLE8=Try A Little Kindness
TTITLE9=Pencils For Sale
TTITLE10=All I Have to Do Is Dream
TTITLE11=You'll Never Walk Alone
TTITLE12=Oh Boy!
TTITLE13=White Lightning
TTITLE14=Bridge Over Troubled Water
TTITLE15=Houston (I'm Comin' To See You)
TTITLE16=Rhinestone Cowboy
TTITLE17=Both Sides Now
TTITLE18=Southern Nights
TTITLE19=My Way
TTITLE20=Highwayman
EXTD=
EXTT0=
EXTT1=
EXTT2=
EXTT3=
EXTT4=
EXTT5=
EXTT6=
EXTT7=
EXTT8=
EXTT9=
EXTT10=
EXTT11=
EXTT12=
EXTT13=
EXTT14=
EXTT15=
EXTT16=
EXTT17=
EXTT18=
EXTT19=
EXTT20=
PLAYORDER=
